<svg width="24" height="24" viewBox="0 0 24 24" fill="none" xmlns="http://www.w3.org/2000/svg">
<g clip-path="url(#clip0)">
<path d="M18.8574 11.1421C18.5183 11.1421 18.1869 11.2426 17.9049 11.431C17.623 11.6194 17.4033 11.8871 17.2736 12.2003C17.1438 12.5136 17.1099 12.8583 17.176 13.1908C17.2422 13.5234 17.4054 13.8288 17.6452 14.0686C17.8849 14.3083 18.1904 14.4716 18.5229 14.5377C18.8554 14.6039 19.2001 14.5699 19.5134 14.4402C19.8266 14.3104 20.0944 14.0907 20.2827 13.8088C20.4711 13.5269 20.5716 13.1954 20.5716 12.8564C20.5716 12.4017 20.391 11.9657 20.0695 11.6442C19.748 11.3227 19.312 11.1421 18.8574 11.1421Z" fill="white"/>
<path d="M11.9999 16.2861C11.3218 16.2861 10.6589 16.085 10.0951 15.7083C9.53122 15.3315 9.09178 14.7961 8.83228 14.1696C8.57277 13.5431 8.50488 12.8537 8.63717 12.1886C8.76946 11.5236 9.096 10.9127 9.5755 10.4332C10.055 9.95367 10.6659 9.62713 11.331 9.49484C11.9961 9.36254 12.6854 9.43044 13.3119 9.68994C13.9384 9.94944 14.4739 10.3889 14.8506 10.9527C15.2274 11.5165 15.4284 12.1794 15.4284 12.8575C15.4273 13.7665 15.0657 14.6379 14.423 15.2806C13.7802 15.9234 12.9088 16.285 11.9999 16.2861ZM11.9999 11.1432C11.6608 11.1432 11.3294 11.2438 11.0475 11.4322C10.7655 11.6205 10.5458 11.8883 10.4161 12.2015C10.2863 12.5147 10.2524 12.8594 10.3185 13.192C10.3847 13.5245 10.5479 13.83 10.7877 14.0697C11.0274 14.3095 11.3329 14.4727 11.6654 14.5389C11.998 14.605 12.3426 14.5711 12.6559 14.4413C12.9691 14.3116 13.2369 14.0918 13.4252 13.8099C13.6136 13.528 13.7141 13.1966 13.7141 12.8575C13.7137 12.403 13.5329 11.9672 13.2115 11.6458C12.8902 11.3245 12.4544 11.1437 11.9999 11.1432Z" fill="white"/>
<path d="M5.143 11.1421C4.80394 11.1421 4.4725 11.2426 4.19059 11.431C3.90868 11.6194 3.68895 11.8871 3.5592 12.2003C3.42945 12.5136 3.39551 12.8583 3.46165 13.1908C3.5278 13.5234 3.69107 13.8288 3.93081 14.0686C4.17056 14.3083 4.47602 14.4716 4.80856 14.5377C5.1411 14.6039 5.48578 14.5699 5.79903 14.4402C6.11227 14.3104 6.38001 14.0907 6.56838 13.8088C6.75674 13.5269 6.85728 13.1954 6.85728 12.8564C6.85728 12.4017 6.67667 11.9657 6.35518 11.6442C6.03369 11.3227 5.59766 11.1421 5.143 11.1421Z" fill="white"/>
<path d="M22.2857 19.7143H1.71429C1.25998 19.7132 0.824599 19.5322 0.503353 19.2109C0.182107 18.8897 0.00113153 18.4543 0 18V7.71429C0.00113153 7.25998 0.182107 6.8246 0.503353 6.50335C0.824599 6.18211 1.25998 6.00113 1.71429 6H22.2857C22.74 6.00113 23.1754 6.18211 23.4966 6.50335C23.8179 6.8246 23.9989 7.25998 24 7.71429V18C23.9993 18.4544 23.8185 18.8901 23.4971 19.2114C23.1758 19.5328 22.7402 19.7136 22.2857 19.7143ZM22.2857 7.71429H1.71429V18H22.2857V7.71429Z" fill="white"/>
</g>
<defs>
<clipPath id="clip0">
<rect width="24" height="24" fill="white"/>
</clipPath>
</defs>
</svg>
